<?xml version="1.0" standalone="no"?>
<svg xmlns="http://www.w3.org/2000/svg" viewBox="0 0 281.2 52.480000000000004" width="281.2" height="52.480000000000004"><rect fill="none" stroke="#000000" stroke-width="4" width="277.2" height="48.480000000000004" x="2" y="2"></rect><g fill="#000000" color="#000000" transform="translate(12 12.001) scale(0.2848)"><svg width="100.0" height="100.0" x="0.0" y="0.0" viewBox="0 0 100 100"><g display="none"><circle display="inline" cx="50" cy="50" r="50"></circle></g><g><g><path d="M15.816,86.473C24.758,94.856,36.774,100,49.999,100c4.461,0,8.782-0.593,12.898-1.688l-29.46-29.46L15.816,86.473z"></path><path d="M98.091,63.677C99.325,59.328,100,54.744,100,50c0-4.461-0.592-8.782-1.688-12.897L84.914,50.5L98.091,63.677z"></path><path d="M32.438,33.977L14.79,51.625l-0.001-0.002c-0.391,0.392-1.023,0.391-1.414,0s-0.391-1.022,0-1.414    c0.001-0.001,0.003-0.001,0.004-0.003l17.644-17.644l-17.13-17.13C5.294,24.413,0,36.584,0,50c0,13.67,5.491,26.054,14.381,35.079    L48.961,50.5L32.438,33.977z M28.26,53.204c0-2.159,1.752-3.912,3.911-3.912c2.161,0,3.913,1.753,3.913,3.912l-3.913,6.038    L28.26,53.204z"></path><rect x="47.257" y="18.136" transform="matrix(0.7071 -0.7071 0.7071 0.7071 -12.3879 53.1563)" width="21.423" height="46.791"></rect><path d="M62.101,1.483C58.225,0.52,54.173,0,49.999,0c-4.744,0-9.328,0.675-13.676,1.909l12.676,12.676L62.101,1.483z"></path><path d="M47.585,15.999L34.162,2.576c-7.14,2.384-13.56,6.331-18.857,11.439l17.133,17.133L47.585,15.999z"></path><path d="M34.852,67.438l30.239,30.239c7.383-2.335,14.018-6.343,19.477-11.57L50.375,51.914L34.852,67.438z"></path><path d="M83.5,49.086l14.177-14.177C92.702,19.178,80.158,6.82,64.32,2.092L50.414,16L83.5,49.086z"></path><path d="M68.352,67.062l17.633,17.633c5.109-5.298,9.056-11.718,11.439-18.857L83.5,51.914L68.352,67.062z"></path><circle cx="32.173" cy="52.868" r="1.812"></circle></g></g></svg></g><path fill="#000000" fill-rule="nonzero" d="M22.36 28.24L19.12 28.24L12.72 19.24Q11.64 19.36 10.48 19.36L10.48 19.36L2.96 19.36L2.96 28.24L0 28.24L0 0.24L10.48 0.24Q15.84 0.24 18.88 2.80Q21.92 5.36 21.92 9.84L21.92 9.84Q21.92 13.12 20.26 15.38Q18.60 17.64 15.52 18.64L15.52 18.64L22.36 28.24ZM10.40 16.84Q14.56 16.84 16.76 15.00Q18.96 13.16 18.96 9.84L18.96 9.84Q18.96 6.44 16.76 4.62Q14.56 2.80 10.40 2.80L10.40 2.80L2.96 2.80L2.96 16.84L10.40 16.84ZM40.36 0Q45.80 0 48.94 3.18Q52.08 6.36 52.08 12.36L52.08 12.36L52.08 28.24L49.16 28.24L49.16 20L31.56 20L31.56 28.24L28.68 28.24L28.68 12.36Q28.68 6.36 31.82 3.18Q34.96 0 40.36 0L40.36 0ZM31.56 17.44L49.16 17.44L49.16 12.08Q49.16 7.40 46.84 5.02Q44.52 2.64 40.36 2.64L40.36 2.64Q36.20 2.64 33.88 5.02Q31.56 7.40 31.56 12.08L31.56 12.08L31.56 17.44ZM80.44 0.24L83.44 0.24L71.04 28.24L68.12 28.24L55.72 0.24L58.92 0.24L69.64 24.56L80.44 0.24ZM95.20 12.24Q99.60 12.48 101.90 14.62Q104.20 16.76 104.20 20.20L104.20 20.20Q104.20 22.60 103.04 24.46Q101.88 26.32 99.60 27.40Q97.32 28.48 94.04 28.48L94.04 28.48Q91.00 28.48 88.30 27.50Q85.60 26.52 83.96 24.88L83.96 24.88L85.36 22.60Q86.76 24.04 89.08 24.94Q91.40 25.84 94.04 25.84L94.04 25.84Q97.48 25.84 99.36 24.34Q101.24 22.84 101.24 20.20L101.24 20.20Q101.24 17.60 99.36 16.12Q97.48 14.64 93.68 14.64L93.68 14.64L91.68 14.64L91.68 12.52L99.44 2.80L85.12 2.80L85.12 0.24L103.12 0.24L103.12 2.28L95.20 12.24ZM140.68 0Q145.48 0 148.16 2.76Q150.84 5.52 150.84 10.76L150.84 10.76L150.84 28.24L147.92 28.24L147.92 10.84Q147.92 6.76 145.86 4.70Q143.80 2.64 140.24 2.64L140.24 2.64Q136.48 2.64 134.36 4.82Q132.24 7 132.24 11.48L132.24 11.48L132.24 28.24L129.32 28.24L129.32 10.84Q129.32 6.76 127.32 4.70Q125.32 2.64 121.76 2.64L121.76 2.64Q117.96 2.64 115.82 4.82Q113.68 7 113.68 11.48L113.68 11.48L113.68 28.24L110.72 28.24L110.72 0.24L113.56 0.24L113.56 4.92Q114.72 2.52 117.00 1.26Q119.28 0 122.40 0L122.40 0Q125.68 0 128.02 1.38Q130.36 2.76 131.40 5.24L131.40 5.24Q132.60 2.68 135.02 1.34Q137.44 0 140.68 0L140.68 0ZM171.20 0Q176.64 0 179.78 3.18Q182.92 6.36 182.92 12.36L182.92 12.36L182.92 28.24L180.00 28.24L180.00 20L162.40 20L162.40 28.24L159.52 28.24L159.52 12.36Q159.52 6.36 162.66 3.18Q165.80 0 171.20 0L171.20 0ZM162.40 17.44L180.00 17.44L180.00 12.08Q180.00 7.40 177.68 5.02Q175.36 2.64 171.20 2.64L171.20 2.64Q167.04 2.64 164.72 5.02Q162.40 7.40 162.40 12.08L162.40 12.08L162.40 17.44ZM202.28 0.24Q207.64 0.24 210.68 2.80Q213.72 5.36 213.72 9.84L213.72 9.84Q213.72 14.32 210.68 16.86Q207.64 19.40 202.28 19.40L202.28 19.40L194.76 19.40L194.76 28.24L191.80 28.24L191.80 0.24L202.28 0.24ZM202.20 16.80Q206.36 16.80 208.56 14.98Q210.76 13.16 210.76 9.84L210.76 9.84Q210.76 6.44 208.56 4.62Q206.36 2.80 202.20 2.80L202.20 2.80L194.76 2.80L194.76 16.80L202.20 16.80Z" transform="translate(55.481 12.001) scale(1)"></path></svg>